# xmcd
# 
# Track frame offsets:
#     150
#     15740
#     35322
#     45692
#     58898
#     83116
#     93795
#     104100
#     153550
#     190271
#     219756
#     257539
#     284887
#     298299
# 
# Disc length: 4799
# 
# Revision: 2
# Processed by: cddbd v1.5.2PL0 Copyright (c) Steve Scherf et al.
# Submitted via: fre:ac v1.0.31
# 
DISCID=ce12bd0e
DTITLE=Various Artist - Thia is Jazz, The Best and The Greatest [CD2]
DYEAR=2010
DGENRE=Jazz
TTITLE0=Nat King Cole - Unforgettable
TTITLE1=Helen Merrill With Clifford Brown - You'd be So Nice To Come Home To
TTITLE2=Chet Baker - My Funny Valentine
TTITLE3=Julie London - Cry Me a River
TTITLE4=Stan Getz and Joao Gilberto - The Girl From Ipanema
TTITLE5=Chris Connor - Lullaby of Birdland
TTITLE6=Louis Armstrong - What a Wonderful World
TTITLE7=Cannonball Adderley and Miles Davis - Autumn Leaves
TTITLE8=Hank Mobley - Recado Bossa Nova
TTITLE9=Sonny Clark - Softly as in a Morning Sunrise
TTITLE10=Dexter Gordon - Manha de Carnaval
TTITLE11=Art Pepper - What is This Thing Called Love
TTITLE12=Duke Ellington - Satin Doll
TTITLE13=John Coltrane - My Favorite Things
EXTD=YEAR: 2010
EXTT0=
EXTT1=
EXTT2=
EXTT3=
EXTT4=
EXTT5=
EXTT6=
EXTT7=
EXTT8=
EXTT9=
EXTT10=
EXTT11=
EXTT12=
EXTT13=
PLAYORDER=
